<?xml version="1.0" encoding="UTF-8"?>
<svg id="Layer_1" data-name="Layer 1" xmlns="http://www.w3.org/2000/svg" viewBox="0 0 70.86 146.92">
  <defs>
    <style>
      .cls-1 {
        fill: none;
        stroke: #eccc14;
        stroke-miterlimit: 10;
        stroke-width: 2px;
      }

      .cls-2 {
        fill: #eccc14;
      }

      .cls-3 {
        fill: #393839;
      }
    </style>
  </defs>
  <path class="cls-2" d="M62.23,52.07l-.54,1.62-1.14,3.39-5.5,16.43-1.58,4.7-.61,1.83-1.14,3.39-16.29,48.66-16.29-48.66-1.14-3.39-7.69-22.96-1.14-3.39-.54-1.62c-1.01-3.02-1.48-6.05-1.48-9.02,0-1.14.07-2.27.21-3.38,1.66-13.57,13.16-24.84,28.07-24.84,15.9,0,27.94,12.83,28.26,27.59.09,3.16-.38,6.42-1.46,9.65Z"/>
  <path class="cls-3" d="M35.43,27.86c-8.71,0-15.27,7.13-15.27,15.24,0,1.6.25,3.24.8,4.87,2.33,6.94,8.4,10.42,14.47,10.42s12.15-3.48,14.48-10.42c3.31-9.89-4.05-20.11-14.48-20.11ZM42.27,45.41c-1.1,3.28-3.96,4.93-6.84,4.93s-5.74-1.65-6.84-4.93c-.26-.77-.38-1.55-.38-2.31,0-3.83,3.1-7.2,7.22-7.2,4.93,0,8.41,4.84,6.84,9.51Z"/>
  <polygon class="cls-3" points="60.55 57.08 55.05 73.51 53.47 78.21 52.86 80.04 51.72 83.43 35.43 132.09 19.14 83.43 18 80.04 10.31 57.08 22.44 57.08 30.49 62.54 41.41 64.05 47.43 57.08 60.55 57.08"/>
  <path class="cls-3" d="M63.69,42.42l-6.95-.34c-1.67-.08-3.08-1.26-3.44-2.89-.47-2.09-1.32-4.11-2.54-5.99-3.24-5-8.49-8.03-14.44-8.32-8.41-.4-15.77,4.94-18.26,12.57-.52,1.59-2.04,2.64-3.71,2.56l-6.99-.34c1.66-13.57,13.16-24.84,28.07-24.84,15.9,0,27.94,12.83,28.26,27.59Z"/>
  <path class="cls-1" d="M62.23,52.07l-.54,1.62-1.14,3.39-5.5,16.43-1.58,4.7-.61,1.83-1.14,3.39-16.29,48.66-16.29-48.66-1.14-3.39-7.69-22.96-1.14-3.39-.54-1.62c-1.01-3.02-1.48-6.05-1.48-9.02,0-1.14.07-2.27.21-3.38,1.66-13.57,13.16-24.84,28.07-24.84,15.9,0,27.94,12.83,28.26,27.59.09,3.16-.38,6.42-1.46,9.65Z"/>
  <g>
    <polygon class="cls-2" points="55.05 73.51 53.47 78.21 42.17 78.21 42.17 73.51 55.05 73.51"/>
    <rect class="cls-2" x="20.93" y="73.51" width="14.56" height="4.7"/>
  </g>
</svg>