<?xml version="1.0" encoding="UTF-8"?>
<svg xmlns="http://www.w3.org/2000/svg" xmlns:xlink="http://www.w3.org/1999/xlink" viewBox="0 0 82.45 133.84">
  <defs>
    <style>
      .cls-1 {
        fill: #de5326;
      }

      .cls-2 {
        fill: #231f20;
      }

      .cls-3 {
        fill: #e2e3e4;
        opacity: .7;
      }

      .cls-4 {
        isolation: isolate;
      }

      .cls-5 {
        fill: #eccc14;
      }

      .cls-6 {
        fill: #393839;
      }

      .cls-7 {
        fill: url(#linear-gradient);
        mix-blend-mode: multiply;
        opacity: .72;
      }
    </style>
    <linearGradient id="linear-gradient" x1="41.44" y1="79.04" x2="41.44" y2="22.06" gradientUnits="userSpaceOnUse">
      <stop offset="0" stop-color="#fff"/>
      <stop offset=".1" stop-color="#d3d3d3"/>
      <stop offset=".25" stop-color="#9e9c9d"/>
      <stop offset=".39" stop-color="#726f70"/>
      <stop offset=".52" stop-color="#4f4c4d"/>
      <stop offset=".65" stop-color="#373334"/>
      <stop offset=".76" stop-color="#282425"/>
      <stop offset=".85" stop-color="#231f20"/>
    </linearGradient>
  </defs>
  <g class="cls-4">
    <g id="Layer_1" data-name="Layer 1">
      <g>
        <g>
          <path class="cls-1" d="M41.05,127.51l26.8-80.02c6.13-18.31-7.49-37.24-26.8-37.24h0c-19.31,0-32.93,18.93-26.8,37.24l26.8,80.02Z"/>
          <path class="cls-1" d="M64.8,21.43c-5.56-7.74-14.22-12.17-23.75-12.17s-18.19,4.43-23.75,12.17c-5.57,7.73-7.02,17.35-4,26.39l27.75,82.84,17.32-51.7,2.76-8.26,7.67-22.88c3.02-9.04,1.57-18.66-4-26.39ZM41.05,124.37L15.2,47.18c-2.82-8.42-1.46-17.38,3.72-24.58,5.19-7.21,13.25-11.34,22.13-11.34s16.94,4.13,22.13,11.34c5.18,7.2,6.54,16.16,3.72,24.58l-6.41,19.14-4.24,12.66-15.2,45.39Z"/>
        </g>
        <g>
          <path class="cls-6" d="M55.52,43.39h0c3.31-9.89-4.05-20.11-14.47-20.11h0c-10.43,0-17.79,10.22-14.47,20.11h0c4.65,13.89,24.3,13.89,28.95,0Z"/>
          <path class="cls-1" d="M54.25,29.05c-3.09-4.3-7.9-6.76-13.2-6.76s-10.11,2.46-13.2,6.76c-3.1,4.3-3.9,9.64-2.22,14.67,2.26,6.74,8.31,11.1,15.42,11.1,3.55,0,6.85-1.09,9.53-3.02,2.68-1.94,4.76-4.71,5.89-8.08,1.68-5.03.87-10.37-2.22-14.67ZM54.58,43.08c-1.99,5.91-7.3,9.74-13.53,9.74s-11.55-3.83-13.53-9.74c-1.47-4.4-.76-9.09,1.95-12.86s6.94-5.93,11.58-5.93,8.86,2.16,11.58,5.93c1.78,2.48,2.7,5.36,2.7,8.29,0,1.53-.25,3.07-.75,4.57Z"/>
        </g>
      </g>
      <path class="cls-7" d="M61.13,70.7l-2.76,8.26c-.34,0-.7,0-1.06.01-.35,0-.7,0-1.06.01-8.49.04-18.24.13-24.66-.02-10.14-.25-9.83-56.9-9.83-56.9h38.4s-1.64,27.41.33,44.26c.09.78.19,1.53.3,2.26.1.73.22,1.44.34,2.12Z"/>
      <path class="cls-5" d="M70.79,72.22h-38.4c-10.63,0-10.63-50.16-10.63-50.16h38.4s2.26,46.53,10.63,50.16Z"/>
      <rect class="cls-3" x="37.85" y="15.38" width="6.4" height="13.36"/>
      <g>
        <path class="cls-2" d="M33.03,34.53c.06-.23.24-.66.39-.94.15-.28.34-.6.57-.86s.45-.48.77-.67.55-.32.99-.42c.43-.1,1.08-.12,1.53.11.45.24.8.51,1.09.95.28.43.46.9.56,1.43.09.53.09.99-.05,1.55-.14.56-.44,1.18-.79,1.67-.35.49-.94.93-1.43,1.14-.49.21-.84.25-1.28.22-.44-.03-.75-.16-1.11-.37-.35-.21-.6-.5-.84-.82-.23-.32-.4-.81-.48-1.15-.08-.33-.07-.55-.07-.82,0-.27.05-.58.08-.78s0-.02.06-.25ZM34.24,34.87c-.08.3-.06.38-.09.61-.02.24,0,.38.03.61.03.24.13.52.27.73.15.21.31.38.53.49s.42.17.69.15c.27-.02.49-.08.76-.26.28-.17.6-.48.78-.8.18-.32.35-.71.43-1.06.08-.35.09-.65.04-.98-.05-.33-.15-.64-.33-.91-.18-.27-.36-.44-.68-.56s-.64-.07-.98.07c-.35.15-.73.46-.94.79s-.44.8-.53,1.1Z"/>
        <path class="cls-2" d="M46.96,37.35c.14.17.21.32.23.51.02.19,0,.33-.11.46-.12.13-.19.19-.41.19-.22,0-.46-.12-.63-.32-.18-.21-.39-.5-.52-.76-.26.31-.54.58-.88.81s-.83.25-1.21.22c-.37-.03-.61-.1-.91-.22s-.55-.27-.8-.46c-.25-.19-.45-.4-.64-.63s-.32-.46-.43-.75c-.11-.29-.17-.58-.21-.91s-.06-.66-.07-1.02c0-.35-.01-.87,0-1.21s0-.78.02-1.04c.02-.26.12-.34.23-.48.12-.13.24-.16.39-.16.15,0,.26,0,.38.14.12.13.23.14.25.45.03.31,0,.91,0,1.35,0,.44.01.97.04,1.46.02.49.2,1.07.46,1.47.25.4.74.59,1.06.63.32.04.32-.02.52-.07.2-.05.3-.15.44-.25.14-.1.25-.25.35-.37.1-.12.22-.33.28-.41s.05-.04.08-.07c.03-.03.08-.04.07-.06-.09-.47-.18-1.19-.2-1.6-.02-.41-.03-.63-.03-.94s0-.59.04-.85c.04-.26.1-.44.21-.63.12-.18.27-.24.46-.23.19,0,.3.05.44.19s.2.29.21.54c.01.25,0,.56-.02.87-.02.3-.03.74-.01,1.06.02.31.05.6.09.89.04.29.11.6.18.87s.16.53.26.75c.1.23.24.42.37.58Z"/>
        <path class="cls-2" d="M47.52,32.58c-.13-.13-.17-.23-.18-.4,0-.17.04-.29.17-.43.13-.14.29-.21.53-.22.24,0,.59-.02.85-.03-.05-.78-.12-1.68-.09-2.43.01-.26.11-.34.23-.48.12-.14.23-.16.38-.17.15,0,.25.01.38.13.13.11.23.18.26.43.1.77.09,1.67.1,2.47.39-.03,1.12-.08,1.43-.06.31.02.33.11.47.23.14.13.15.22.16.38,0,.15,0,.26-.14.39-.14.13-.17.22-.48.26-.31.04-1.01.06-1.39.05.02.83.1,1.66.17,2.49.07.83.17,1.7.26,2.5.03.24-.02.41-.14.56s-.24.2-.4.22c-.17.01-.28-.02-.42-.14-.14-.12-.25-.27-.28-.51-.12-.82-.18-1.7-.27-2.54s-.12-1.68-.19-2.53c-.26.02-.65.04-.89.04s-.39-.09-.52-.22Z"/>
        <path class="cls-2" d="M38.41,47.96c.06-.23.23-.65.38-.93s.33-.59.56-.83.44-.47.76-.65c.32-.18.54-.32.98-.39.44-.07,1.08-.04,1.53.21.45.26.83.58,1.13,1.01.29.43.5.9.61,1.42s.1.93-.04,1.48c-.14.54-.47,1.13-.83,1.6-.36.47-.95.91-1.43,1.11s-.84.23-1.28.19c-.44-.04-.75-.17-1.1-.37s-.6-.49-.83-.81c-.23-.32-.4-.81-.48-1.15-.08-.33-.08-.55-.08-.83s.04-.59.07-.8c.04-.21,0-.03.05-.26ZM39.6,48.26c-.08.3-.06.39-.08.62-.02.24,0,.38.04.62s.13.52.27.73c.15.21.3.37.53.48s.42.19.69.18c.27-.01.49-.07.76-.23s.6-.46.79-.76c.19-.3.36-.67.45-1.01s.09-.62.04-.95c-.05-.33-.16-.64-.35-.91-.19-.27-.38-.47-.7-.6-.31-.14-.63-.12-.99,0-.35.12-.72.44-.94.75s-.44.79-.52,1.09Z"/>
        <path class="cls-2" d="M47.75,51.62c-.14.15-.28.17-.45.18-.17,0-.28-.01-.41-.14s-.22-.19-.22-.46c-.03-1.3-.02-2.73-.06-4.06-.13,0-.19.01-.34,0-.15,0-.39-.08-.51-.21-.11-.13-.18-.23-.19-.4s.05-.28.14-.43c.1-.14.35-.21.49-.22.14-.01.17,0,.29-.03-.07-.53-.17-1.33-.23-1.8-.06-.47-.04-.73.01-1.1.06-.37.16-.62.32-.9.16-.28.36-.46.61-.63.25-.17.61-.25.86-.28s.36,0,.58.02c.23.02.47.08.69.15.22.07.43.18.6.31.17.12.27.29.31.48.03.19-.01.32-.1.46s-.25.2-.39.22-.21,0-.33-.03c-.12-.03-.24-.08-.37-.12-.13-.03-.25-.09-.4-.11-.15-.02-.2-.08-.4-.03-.2.05-.44.08-.58.37-.14.29-.24.51-.19.97.05.46.18,1.33.26,1.87.29-.04.61-.11.89-.14.28-.03.67-.13.9-.14s.33.08.46.2c.13.11.16.2.18.37s-.03.36-.21.48-.38.21-.61.27c-.23.06-.52.11-.76.14-.24.03-.48.06-.72.1.08,1.35.14,2.79.11,4.11,0,.29-.09.37-.22.51Z"/>
        <path class="cls-2" d="M28.6,60.85c-.02-.26,0-.77.06-1.11.06-.34.14-.72.31-1.04.17-.32.33-.59.61-.84.28-.25.49-.38.94-.49.45-.1,1.08-.12,1.56.13s.88.57,1.23,1.02.67.98.89,1.51c.22.53.36,1.05.38,1.63.02.58-.14,1.18-.39,1.68s-.74.86-1.16,1.07c-.42.21-.67.22-1.07.26-.4.04-.74,0-1.11-.15-.36-.15-.62-.37-.9-.64s-.61-.73-.77-1.04-.24-.55-.34-.84c-.09-.28-.17-.63-.21-.86-.04-.23-.02-.02-.04-.28ZM29.89,61.02c.03.33.08.42.14.67.06.25.14.4.24.63.11.23.29.5.48.68.19.18.39.32.62.4.23.07.4.1.64.06.24-.03.41-.1.62-.29.21-.19.44-.48.53-.8.09-.32.15-.72.13-1.08s-.1-.69-.23-1.03c-.14-.34-.32-.69-.56-.97s-.46-.48-.8-.6c-.34-.12-.63-.09-.97.11-.34.19-.6.57-.71.95-.11.38-.17.95-.14,1.27Z"/>
        <path class="cls-2" d="M35.48,58.72c-.1-.05-.31-.18-.39-.3-.09-.12-.16-.21-.19-.36-.03-.15-.02-.28.09-.42.1-.13.24-.17.42-.18.18-.01.39.12.57.14.18.02.44.35.56.29.28-.13.57-.53.87-.69.29-.16.69-.3.95-.3.26,0,.26.02.47.06.2.04.38.12.57.22.19.1.37.24.52.4.15.15.26.39.3.58s.02.32-.06.45c-.08.14-.21.17-.34.18-.13.01-.2-.03-.31-.1-.1-.06-.2-.15-.3-.22-.1-.07-.19-.15-.3-.21-.11-.06-.2-.09-.34-.08-.14,0-.28.06-.41.16-.13.1-.29.23-.41.35-.13.13-.27.29-.37.44-.1.15-.19.28-.28.43.41,1.45,1.01,3,1.31,4.43.07.33-.04.38-.15.55-.12.17-.27.17-.44.16-.17,0-.31-.05-.47-.19-.16-.15-.26-.22-.33-.54-.33-1.44-.8-2.99-1.19-4.46,0-.03-.02-.05-.03-.08-.01-.03-.02-.04-.03-.07,0-.03,0-.04-.01-.08,0-.04,0,0-.02-.09-.02-.08-.05-.37-.11-.45-.07-.08-.04-.01-.14-.06Z"/>
        <path class="cls-2" d="M47.78,63.18c.08.09.25.34.21.5-.04.17-.08.27-.22.38-.14.1-.29.11-.47.11-.18,0-.46-.17-.57-.26-.11-.08-.11-.13-.18-.17s-.07-.18-.12-.15c-.35.19-.73.42-1.14.54-.41.12-.85.2-1.27.19-.42,0-.83-.08-1.21-.23-.39-.15-.74-.44-.97-.76-.23-.32-.36-.6-.48-.95-.12-.35-.22-.73-.29-1.09-.08-.36-.11-.75-.12-1.1,0-.35.01-.71.06-1.02.05-.31.17-.54.33-.77.17-.24.35-.39.59-.55s.47-.25.75-.33c.28-.08.59-.11.87-.1.28,0,.54.04.81.06.27.02.53.09.79.15-.08-.51-.13-1.38-.13-1.81s0-.7.03-.98c.03-.27.15-.3.27-.43s.25-.15.39-.16c.15,0,.25,0,.38.11.12.12.24.13.24.41.09,2.79.32,5.51,1.25,8.21.02.05.05.05.09.09.04.04.02.01.1.1ZM46.05,61.99c0-.06-.03-.15-.04-.22-.09-.45-.19-.85-.27-1.31s-.04-.96-.33-1.36c-.02-.03-.07-.04-.11-.05-.05-.02-.04-.03-.11-.07-.07-.03.05-.02-.14-.08-.19-.06-.72-.17-1.02-.16-.3,0-.68.03-.96.16s-.5.28-.68.53-.25.6-.26.9c-.01.3.01.6.08.87s.18.66.25.84c.07.19.1.16.16.28s.06.16.15.26c.09.1.18.24.34.3.16.06.15.11.4.15s.79.04,1.13-.04c.34-.08.72-.26,1-.5.02-.01.04-.06.07-.08s.08-.08.11-.11c.03-.03.08-.08.11-.11.03-.03.05-.03.07-.07.02-.04.07-.08.08-.13Z"/>
        <path class="cls-2" d="M54.32,62.42c.2-.13.32-.11.49-.06s.26.16.35.31c.08.15.13.29.09.48-.04.19-.07.29-.29.45s-.6.4-.9.54c-.3.14-.63.28-.98.33s-.64.08-1.01,0c-.38-.08-.68-.18-1.06-.45-.39-.26-.77-.69-1.08-1.15-.31-.46-.66-1.1-.84-1.66-.18-.56-.29-1.16-.26-1.73s.2-.98.53-1.4c.33-.42.75-.72,1.26-.89.5-.17,1.28-.11,1.72,0,.44.11.58.22.87.43.29.21.5.46.69.74s.32.57.4.88c.08.31.08.59-.02.89s-.29.58-.52.81c-.24.22-.55.42-.82.58-.27.16-.63.31-.87.42-.25.11-.63.23-.76.32s-.33-.02-.3.06c.1.25.46.58.73.77.27.2.64.26.96.24.33-.03.6-.17.86-.33.26-.16.56-.43.76-.56ZM50.62,58.89c-.23.2-.44.58-.46.96-.02.38.04.91.2,1.22.04.07.08-.12.18-.13.1-.01.31-.14.44-.2s.31-.15.45-.21c.14-.06.25-.11.4-.18.15-.07.35-.17.51-.26.16-.1.35-.19.48-.33.13-.13.26-.18.25-.41-.01-.23-.19-.6-.41-.74-.23-.14-.46-.21-.72-.21-.26,0-.5.05-.74.16-.24.11-.35.12-.58.33Z"/>
        <path class="cls-2" d="M56.25,58.51c-.1-.05-.3-.17-.38-.28-.08-.11-.15-.2-.17-.35-.02-.15,0-.28.1-.41.11-.13.25-.17.42-.2.18-.02.38.1.55.12.17.02.43.32.55.26.27-.14.55-.54.83-.72.28-.18.66-.38.92-.41.26-.04.27-.01.48,0s.4.07.6.13c.2.07.39.18.55.31.16.13.27.33.3.52.04.19,0,.31-.09.45s-.23.21-.36.24-.2,0-.3-.04-.19-.11-.29-.17c-.1-.06-.19-.12-.3-.16s-.2-.07-.34-.04-.29.1-.42.21-.29.26-.42.39c-.13.14-.28.31-.39.46-.11.15-.21.29-.32.45.27,1.4.53,2.92.67,4.29.03.32-.03.4-.15.58-.12.17-.24.21-.41.23-.17.02-.27,0-.43-.13-.15-.14-.23-.19-.28-.5-.23-1.41-.42-2.99-.67-4.44,0-.03-.01-.05-.02-.07,0-.02-.02-.04-.02-.07,0-.03,0-.04,0-.07s0,0,0-.08-.01-.36-.08-.43-.03,0-.13-.06Z"/>
      </g>
    </g>
  </g>
</svg>