<?xml version="1.0" encoding="UTF-8"?>
<svg id="Layer_1" data-name="Layer 1" xmlns="http://www.w3.org/2000/svg" viewBox="0 0 107.46 108.8">
  <defs>
    <style>
      .cls-1 {
        fill: #fed402;
      }

      .cls-2 {
        fill: #de5326;
      }

      .cls-3 {
        fill: #393839;
      }
    </style>
  </defs>
  <path class="cls-2" d="M91.1,44.25v.1c0,7.44-2.75,15.15-6.75,22.43-10.71,19.49-30.41,35.9-30.41,35.9,0,0-19.7-16.41-30.41-35.9-4-7.28-6.75-14.99-6.75-22.43v-.1c.05-20.48,16.67-37.06,37.16-37.06s37.11,16.58,37.16,37.06Z"/>
  <path class="cls-1" d="M91.1,44.25h-27.15l-.85-7.53-13.55-1.69-6.84,9.22h-25.93c.05-20.48,16.67-37.06,37.16-37.06s37.11,16.58,37.16,37.06Z"/>
  <path class="cls-3" d="M53.94,25.52c-10.34,0-18.73,8.39-18.73,18.73s8.39,18.72,18.73,18.72,18.72-8.38,18.72-18.72-8.38-18.73-18.72-18.73ZM53.94,51.78c-4.16,0-7.53-3.37-7.53-7.53s3.37-7.53,7.53-7.53,7.53,3.37,7.53,7.53-3.37,7.53-7.53,7.53Z"/>
  <path class="cls-2" d="M53.94,25.52c10.34,0,18.72,8.39,18.72,18.73s-8.38,18.72-18.72,18.72-18.73-8.38-18.73-18.72,8.39-18.73,18.73-18.73M53.94,21.52c-12.53,0-22.73,10.2-22.73,22.73s10.2,22.72,22.73,22.72,22.72-10.19,22.72-22.72-10.19-22.73-22.72-22.73h0Z"/>
  <path class="cls-3" d="M84.35,66.78c-10.71,19.49-30.41,35.9-30.41,35.9,0,0-19.7-16.41-30.41-35.9h11.33l9.24,3.81,9.23-3.81,9.24-3.81,9.23,3.81h12.55Z"/>
  <path class="cls-2" d="M53.94,11.19c18.24,0,33.12,14.84,33.16,33.06v.1c0,6.05-2.1,12.95-6.26,20.5-7.97,14.5-21.33,27.44-26.9,32.5-5.57-5.06-18.94-18-26.9-32.5-4.15-7.55-6.26-14.45-6.26-20.5v-.09c.04-18.23,14.92-33.07,33.16-33.07M53.94,7.19c-20.49,0-37.11,16.58-37.16,37.06v.1c0,7.44,2.75,15.15,6.75,22.43,10.71,19.49,30.41,35.9,30.41,35.9,0,0,19.7-16.41,30.41-35.9,4-7.28,6.75-14.99,6.75-22.43v-.1c-.05-20.48-16.67-37.06-37.16-37.06h0Z"/>
</svg>